<?xml version="1.0" encoding="UTF-8"?> <svg xmlns="http://www.w3.org/2000/svg" height="480pt" viewBox="0 0 480 480" width="480pt"><path d="m432 240c0 106.039062-85.960938 192-192 192s-192-85.960938-192-192 85.960938-192 192-192 192 85.960938 192 192zm0 0" fill="#8690fa"></path><path d="m240 480c132.546875 0 240-107.453125 240-240s-107.453125-240-240-240-240 107.453125-240 240c.148438 132.484375 107.515625 239.851562 240 240zm0-464c123.710938 0 224 100.289062 224 224s-100.289062 224-224 224-224-100.289062-224-224c.140625-123.652344 100.347656-223.859375 224-224zm0 0"></path><path d="m315 281.753906-67 53.597656v-159.351562c0-4.417969-3.582031-8-8-8s-8 3.582031-8 8v159.351562l-67-53.597656c-3.449219-2.761718-8.488281-2.203125-11.246094 1.246094-2.761718 3.449219-2.203125 8.488281 1.246094 11.246094l80 64c.351562.234375.71875.4375 1.105469.609375.222656.128906.398437.3125.628906.417969l.394531.152343c.914063.363281 1.886719.558594 2.871094.574219.980469-.019531 1.953125-.214844 2.863281-.574219l.394531-.152343c.230469-.105469.40625-.289063.628907-.417969.386719-.171875.753906-.375 1.105469-.609375l80-64c3.449218-2.757813 4.007812-7.796875 1.246093-11.246094-2.757812-3.449219-7.796875-4.007812-11.246093-1.246094zm0 0"></path><path d="m160 136h160c4.417969 0 8-3.582031 8-8s-3.582031-8-8-8h-160c-4.417969 0-8 3.582031-8 8s3.582031 8 8 8zm0 0"></path></svg> 