<?xml version="1.0" encoding="UTF-8"?> <svg xmlns="http://www.w3.org/2000/svg" height="480pt" viewBox="0 0 480 480" width="480pt"><path d="m432 240c0 106.039062-85.960938 192-192 192s-192-85.960938-192-192 85.960938-192 192-192 192 85.960938 192 192zm0 0" fill="#8690fa"></path><path d="m240 0c-132.546875 0-240 107.453125-240 240s107.453125 240 240 240 240-107.453125 240-240c-.148438-132.484375-107.515625-239.851562-240-240zm0 464c-123.710938 0-224-100.289062-224-224s100.289062-224 224-224 224 100.289062 224 224c-.140625 123.652344-100.347656 223.859375-224 224zm0 0"></path><path d="m160 192c1.816406 0 3.574219-.617188 4.992188-1.753906l67.007812-53.597656v159.351562c0 4.417969 3.582031 8 8 8s8-3.582031 8-8v-159.351562l67 53.597656c3.449219 2.761718 8.488281 2.203125 11.246094-1.246094 2.761718-3.449219 2.203125-8.488281-1.246094-11.246094l-80-64c-.191406-.152344-.433594-.195312-.640625-.328125-.289063-.214843-.59375-.402343-.910156-.570312-.261719-.125-.527344-.234375-.800781-.328125-.359376-.121094-.730469-.214844-1.105469-.28125-.355469-.074219-.714844-.128906-1.078125-.15625-.152344 0-.28125-.089844-.433594-.089844s-.289062.078125-.4375.089844c-.355469.027344-.710938.082031-1.058594.15625-.378906.066406-.753906.160156-1.121094.28125-.269531.09375-.539062.203125-.796874.328125-.316407.167969-.617188.355469-.90625.570312-.207032.132813-.445313.175781-.648438.328125l-80 64c-2.644531 2.113282-3.671875 5.664063-2.5625 8.863282 1.109375 3.203124 4.113281 5.359374 7.5 5.382812zm0 0"></path><path d="m320 336h-160c-4.417969 0-8 3.582031-8 8s3.582031 8 8 8h160c4.417969 0 8-3.582031 8-8s-3.582031-8-8-8zm0 0"></path></svg> 